<svg version="1.1" xmlns="http://www.w3.org/2000/svg" xmlns:xlink="http://www.w3.org/1999/xlink" width="16" height="23"><defs/><g><path fill="rgb(255,255,255)" stroke="none" paint-order="stroke fill markers" fill-rule="evenodd" d=" M 14.986626386642456 11.20047402381897 C 14.986626386642456 11.20047402381897 12.025574922561646 14.18456757068634 12.025574922561646 14.18456757068634 C 12.025574922561646 14.18456757068634 12.02270793914795 14.181925415992737 12.02270793914795 14.181925415992737 C 12.02270793914795 14.181925415992737 5.726502418518066 20.515390396118164 5.726502418518066 20.515390396118164 C 5.726502418518066 20.515390396118164 4.230789422988892 21.72175419330597 2.9229800701141357 20.386144995689392 C 1.6150157451629639 19.050535798072815 2.6403884887695312 17.652285516262054 2.6403884887695312 17.652285516262054 C 2.6403884887695312 17.652285516262054 8.916990041732788 11.338416516780853 8.916990041732788 11.338416516780853 C 8.916990041732788 11.338416516780853 2.321068525314331 5.299441695213318 2.321068525314331 5.299441695213318 C 2.321068525314331 5.299441695213318 1.5293161869049072 3.537014424800873 2.511064291000366 2.534536898136139 C 3.492734909057617 1.5319492816925049 5.282119989395142 2.3153481483459473 5.282119989395142 2.3153481483459473 C 5.282119989395142 2.3153481483459473 11.880908489227295 8.356965124607086 11.880908489227295 8.356965124607086 C 11.880908489227295 8.356965124607086 11.900512456893921 8.33725905418396 11.900512456893921 8.33725905418396 C 11.900512456893921 8.33725905418396 14.986626386642456 11.20047402381897 14.986626386642456 11.20047402381897 Z"/></g></svg>