<svg version="1.1" xmlns="http://www.w3.org/2000/svg" xmlns:xlink="http://www.w3.org/1999/xlink" width="16" height="23"><defs/><g><path fill="rgb(255,255,255)" stroke="none" paint-order="stroke fill markers" fill-rule="evenodd" d=" M 1.013218641281128 11.2005295753479 C 1.013218641281128 11.2005295753479 3.9742701053619385 14.18451303243637 3.9742701053619385 14.18451303243637 C 3.9742701053619385 14.18451303243637 3.9771370887756348 14.181980967521667 3.9771370887756348 14.181980967521667 C 3.9771370887756348 14.181980967521667 10.273342609405518 20.515445947647095 10.273342609405518 20.515445947647095 C 10.273342609405518 20.515445947647095 11.7691330909729 21.7218097448349 13.076942443847656 20.386200547218323 C 14.384906768798828 19.050371170043945 13.359456539154053 17.652230978012085 13.359456539154053 17.652230978012085 C 13.359456539154053 17.652230978012085 7.082854986190796 11.338472068309784 7.082854986190796 11.338472068309784 C 7.082854986190796 11.338472068309784 13.678853988647461 5.299387156963348 13.678853988647461 5.299387156963348 C 13.678853988647461 5.299387156963348 14.470606327056885 3.5370699763298035 13.488858222961426 2.5345924496650696 C 12.507187604904175 1.5318947434425354 10.71780252456665 2.315293610095978 10.71780252456665 2.315293610095978 C 10.71780252456665 2.315293610095978 4.118936538696289 8.357020676136017 4.118936538696289 8.357020676136017 C 4.118936538696289 8.357020676136017 4.099332571029663 8.33731460571289 4.099332571029663 8.33731460571289 C 4.099332571029663 8.33731460571289 1.013218641281128 11.2005295753479 1.013218641281128 11.2005295753479 Z"/></g></svg>