<svg version="1.1" xmlns="http://www.w3.org/2000/svg" xmlns:xlink="http://www.w3.org/1999/xlink" width="22" height="38"><defs/><g><path fill="rgb(245,244,242)" stroke="none" paint-order="stroke fill markers" fill-rule="evenodd" d=" M 1.0109858512878418 4.116470456123352 C 1.0109858512878418 3.2157158851623535 1.4420406818389893 2.5790666937828064 2.2984938621520996 2.2071834206581116 C 3.1606810092926025 1.841575264930725 3.927637815475464 1.98799467086792 4.604710817337036 2.652276396751404 C 4.604710817337036 2.652276396751404 19.39509081840515 17.473993599414825 19.39509081840515 17.473993599414825 C 19.820411682128906 17.896738350391388 20.022262811660767 18.40304124355316 19.999869346618652 18.99466371536255 C 19.999869346618652 19.563277423381805 19.798095703125 20.053397119045258 19.39509081840515 20.458747684955597 C 19.39509081840515 20.458747684955597 4.604710817337036 35.337051033973694 4.604710817337036 35.337051033973694 C 3.927637815475464 36.01806640625 3.1606810092926025 36.164595901966095 2.2984938621520996 35.781593561172485 C 1.4420406818389893 35.41026073694229 1.0109858512878418 34.75687789916992 1.0109858512878418 33.82221567630768 C 1.0109858512878418 33.82221567630768 1.0109858512878418 4.116470456123352 1.0109858512878418 4.116470456123352 C 1.0109858512878418 4.116470456123352 1.0109858512878418 4.116470456123352 1.0109858512878418 4.116470456123352 Z"/></g></svg>