<svg version="1.1" xmlns="http://www.w3.org/2000/svg" xmlns:xlink="http://www.w3.org/1999/xlink" width="112" height="77"><defs/><g><path fill="rgb(245,197,6)" stroke="none" paint-order="stroke fill markers" fill-rule="evenodd" d=" M 83.74999070167542 75.99996984004974 C 83.74999070167542 75.99996984004974 25.84374451637268 75.99996984004974 25.84374451637268 75.99996984004974 C 12.675147294998169 75.99996984004974 1.9999732971191406 65.45821297168732 1.9999732971191406 52.454408288002014 C 1.9999732971191406 41.7738282084465 9.247474908828735 32.85809737443924 19.117104053497314 29.976277232170105 C 19.098894834518433 29.616503834724426 19.031172037124634 29.27456498146057 19.031172037124634 28.908956825733185 C 19.031172037124634 19.620462000370026 26.65634059906006 12.090871572494507 36.062448263168335 12.090871572494507 C 37.94597887992859 12.090871572494507 39.725600719451904 12.464846551418304 41.41936802864075 13.022451281547546 C 46.38041162490845 6.369285583496094 54.303823947906494 1.99993234872818 63.31242823600769 1.99993234872818 C 76.26569175720215 1.99993234872818 87.05771470069885 10.945497512817383 89.82714319229126 22.9077427983284 C 101.94092297554016 25.64259308576584 110.99997067451477 36.29961395263672 110.99997067451477 49.09072518348694 C 110.99997067451477 63.95229488611221 98.79971647262573 75.99996984004974 83.74999070167542 75.99996984004974 Z M 63.31242823600769 49.09072518348694 C 63.31242823600769 49.09072518348694 63.31242823600769 28.908956825733185 63.31242823600769 28.908956825733185 C 63.31242823600769 28.908956825733185 49.68743824958801 28.908956825733185 49.68743824958801 28.908956825733185 C 49.68743824958801 28.908956825733185 49.68743824958801 49.09072518348694 49.68743824958801 49.09072518348694 C 49.68743824958801 49.09072518348694 39.25580286979675 49.09072518348694 39.25580286979675 49.09072518348694 C 39.25580286979675 49.09072518348694 56.49993324279785 66.1191920042038 56.49993324279785 66.1191920042038 C 56.49993324279785 66.1191920042038 73.74406361579895 49.09072518348694 73.74406361579895 49.09072518348694 C 73.74406361579895 49.09072518348694 63.31242823600769 49.09072518348694 63.31242823600769 49.09072518348694 Z"/></g></svg>