<svg version="1.1" xmlns="http://www.w3.org/2000/svg" xmlns:xlink="http://www.w3.org/1999/xlink" width="22" height="23"><defs/><g><path fill="rgb(185,148,3)" stroke="none" paint-order="stroke fill markers" fill-rule="evenodd" d=" M 15.958149909973145 3.5783987045288086 C 15.0026695728302 4.531886279582977 15.0026695728302 6.0779871344566345 15.958149909973145 7.031584799289703 C 16.913707733154297 7.985072374343872 18.46280860900879 7.985072374343872 19.418288946151733 7.031584799289703 C 19.418288946151733 7.031584799289703 20.81822919845581 5.634435415267944 20.81822919845581 5.634435415267944 C 20.924927473068237 6.035492479801178 20.99993395805359 6.448879599571228 20.99993395805359 6.883403956890106 C 20.99993395805359 9.580493450164795 18.809093713760376 11.766876459121704 16.106613159179688 11.766876459121704 C 15.665640115737915 11.766876459121704 15.246440649032593 11.690033793449402 14.840026378631592 11.580824732780457 C 14.826311349868774 11.595136404037476 14.822359561920166 11.614512205123901 14.808257102966309 11.62849360704422 C 14.808257102966309 11.62849360704422 6.15794825553894 20.261403799057007 6.15794825553894 20.261403799057007 C 5.202467918395996 21.215111553668976 3.653289556503296 21.215111553668976 2.6978092193603516 20.261403799057007 C 1.7423288822174072 19.307916224002838 1.7423288822174072 17.76192545890808 2.6978092193603516 16.808327794075012 C 2.6978092193603516 16.808327794075012 11.34811806678772 8.175307512283325 11.34811806678772 8.175307512283325 C 11.36291790008545 8.160665571689606 11.383064270019531 8.1565922498703 11.398096561431885 8.142280578613281 C 11.289616107940674 7.738361179828644 11.213214874267578 7.321561276912689 11.213214874267578 6.883403956890106 C 11.213214874267578 4.1863144636154175 13.404055118560791 1.9999314546585083 16.106613159179688 1.9999314546585083 C 16.542007207870483 1.9999314546585083 16.956247568130493 2.0746824145317078 17.35809016227722 2.1813594102859497 C 17.35809016227722 2.1813594102859497 15.958149909973145 3.5783987045288086 15.958149909973145 3.5783987045288086 Z M 4.484869718551636 17.871354699134827 C 4.147030591964722 17.871354699134827 3.873194932937622 18.14470762014389 3.873194932937622 18.48180252313614 C 3.873194932937622 18.819007515907288 4.147030591964722 19.09214025735855 4.484869718551636 19.09214025735855 C 4.82270884513855 19.09214025735855 5.096544504165649 18.819007515907288 5.096544504165649 18.48180252313614 C 5.096544504165649 18.14470762014389 4.82270884513855 17.871354699134827 4.484869718551636 17.871354699134827 Z"/></g></svg>