<svg version="1.1" xmlns="http://www.w3.org/2000/svg" xmlns:xlink="http://www.w3.org/1999/xlink" width="27" height="21"><defs/><g><path fill="rgb(185,148,3)" stroke="none" paint-order="stroke fill markers" fill-rule="evenodd" d=" M 25.736430406570435 19.299659490585327 C 25.736430406570435 19.299659490585327 17.459991693496704 11.023330092430115 17.459991693496704 11.023330092430115 C 17.459991693496704 11.023330092430115 23.58495306968689 4.898265063762665 23.58495306968689 4.898265063762665 C 23.58495306968689 4.898265063762665 25.75533699989319 2.727955162525177 25.75533699989319 2.727955162525177 C 25.896749019622803 2.9568318128585815 25.99996042251587 3.21113920211792 25.99996042251587 3.499904692173004 C 25.99996042251587 3.499904692173004 25.99996042251587 18.499857246875763 25.99996042251587 18.499857246875763 C 25.99996042251587 18.800842702388763 25.889000415802002 19.064837992191315 25.736430406570435 19.299659490585327 Z M 23.054638624191284 4.367962598800659 C 23.054638624191284 4.367962598800659 20.26103448867798 7.161600828170776 20.26103448867798 7.161600828170776 C 20.26103448867798 7.161600828170776 14.914962768554688 12.50767058134079 14.914962768554688 12.50767058134079 C 14.914962768554688 12.50767058134079 13.976529359817505 13.446185946464539 13.976529359817505 13.446185946464539 C 13.976529359817505 13.446185946464539 4.94529914855957 4.414750754833221 4.94529914855957 4.414750754833221 C 4.94529914855957 4.414750754833221 3.445246934890747 2.9147775173187256 3.445246934890747 2.9147775173187256 C 3.445246934890747 2.9147775173187256 2.7560861110687256 2.2256155014038086 2.7560861110687256 2.2256155014038086 C 2.978548526763916 2.095049023628235 3.2233269214630127 1.9999314546585083 3.4999520778656006 1.9999314546585083 C 3.4999520778656006 1.9999314546585083 24.499985694885254 1.9999314546585083 24.499985694885254 1.9999314546585083 C 24.764445543289185 1.9999314546585083 25.000080585479736 2.0866822004318237 25.215879201889038 2.2067901492118835 C 25.215879201889038 2.2067901492118835 24.46085524559021 2.961785852909088 24.46085524559021 2.961785852909088 C 24.46085524559021 2.961785852909088 23.054638624191284 4.367962598800659 23.054638624191284 4.367962598800659 Z M 2.9149324893951416 3.4451900720596313 C 2.9149324893951416 3.4451900720596313 10.469666242599487 10.999880969524384 10.469666242599487 10.999880969524384 C 10.469666242599487 10.999880969524384 2.225694179534912 19.243843972682953 2.225694179534912 19.243843972682953 C 2.095130205154419 19.021242439746857 1.9999773502349854 18.77651286125183 1.9999773502349854 18.499857246875763 C 1.9999773502349854 18.499857246875763 1.9999773502349854 3.499904692173004 1.9999773502349854 3.499904692173004 C 1.9999773502349854 3.223249077796936 2.095130205154419 2.9784094095230103 2.225694179534912 2.7560280561447144 C 2.225694179534912 2.7560280561447144 2.9149324893951416 3.4451900720596313 2.9149324893951416 3.4451900720596313 C 2.9149324893951416 3.4451900720596313 2.9149324893951416 3.4451900720596313 2.9149324893951416 3.4451900720596313 Z M 10.999980688095093 11.53018343448639 C 10.999980688095093 11.53018343448639 11.316588640213013 11.84680163860321 11.316588640213013 11.84680163860321 C 11.316588640213013 11.84680163860321 11.429640769958496 11.959863841533661 11.429640769958496 11.959863841533661 C 11.429640769958496 11.959863841533661 12.460902452468872 12.991184890270233 12.460902452468872 12.991184890270233 C 12.460902452468872 12.991184890270233 13.960877180099487 14.491158127784729 13.960877180099487 14.491158127784729 C 13.960877180099487 14.491158127784729 14.02340841293335 14.428627133369446 14.02340841293335 14.428627133369446 C 14.02340841293335 14.428627133369446 14.039060592651367 14.444149792194366 14.039060592651367 14.444149792194366 C 14.039060592651367 14.444149792194366 15.445277214050293 13.037973046302795 15.445277214050293 13.037973046302795 C 15.445277214050293 13.037973046302795 16.9296772480011 11.55352246761322 16.9296772480011 11.55352246761322 C 16.9296772480011 11.55352246761322 25.18782925605774 19.81179714202881 25.18782925605774 19.81179714202881 C 24.979236841201782 19.921886920928955 24.752280235290527 19.99994057416916 24.499985694885254 19.99994057416916 C 24.499985694885254 19.99994057416916 3.4999520778656006 19.99994057416916 3.4999520778656006 19.99994057416916 C 3.2233269214630127 19.99994057416916 2.978548526763916 19.904602825641632 2.7560861110687256 19.77414643764496 C 2.7560861110687256 19.77414643764496 10.999980688095093 11.53018343448639 10.999980688095093 11.53018343448639 Z"/></g></svg>