<svg version="1.1" xmlns="http://www.w3.org/2000/svg" xmlns:xlink="http://www.w3.org/1999/xlink" width="24" height="22"><defs/><g><path fill="rgb(185,148,3)" stroke="none" paint-order="stroke fill markers" fill-rule="evenodd" d=" M 1.9999322891235352 20.99988603591919 C 1.9999322891235352 20.99988603591919 5.545383453369141 15.818070232868195 5.545383453369141 15.818070232868195 C 5.545383453369141 15.818070232868195 9.995639085769653 15.818070232868195 9.995639085769653 15.818070232868195 C 9.995639085769653 15.818070232868195 15.058809280395508 15.818070232868195 15.058809280395508 15.818070232868195 C 15.058809280395508 15.818070232868195 19.50906491279602 15.818070232868195 19.50906491279602 15.818070232868195 C 19.50906491279602 15.818070232868195 22.99996590614319 20.99988603591919 22.99996590614319 20.99988603591919 C 22.99996590614319 20.99988603591919 1.9999322891235352 20.99988603591919 1.9999322891235352 20.99988603591919 Z M 12.527262926101685 14.954415917396545 C 9.635251522064209 14.954415917396545 7.290833950042725 11.77083969116211 7.290833950042725 8.908945798873901 C 7.290833950042725 8.908945798873901 7.290833950042725 7.181637167930603 7.290833950042725 7.181637167930603 C 7.290833950042725 4.319853365421295 9.635251522064209 1.9999314546585083 12.527262926101685 1.9999314546585083 C 15.419196844100952 1.9999314546585083 17.763614416122437 4.319853365421295 17.763614416122437 7.181637167930603 C 17.763614416122437 7.181637167930603 17.763614416122437 8.908945798873901 17.763614416122437 8.908945798873901 C 17.763614416122437 11.77083969116211 15.419196844100952 14.954415917396545 12.527262926101685 14.954415917396545 Z"/></g></svg>