<svg version="1.1" xmlns="http://www.w3.org/2000/svg" xmlns:xlink="http://www.w3.org/1999/xlink" width="58" height="58"><defs/><g><path fill="rgb(245,197,6)" stroke="none" paint-order="stroke fill markers" fill-rule="evenodd" d=" M 1.994800090789795 37.780249655246735 C 1.994800090789795 37.780249655246735 10.504859209060669 29.000259518623352 10.504859209060669 29.000259518623352 C 10.504859209060669 29.000259518623352 1.994800090789795 20.21960884332657 1.994800090789795 20.21960884332657 C 1.994800090789795 20.21960884332657 9.21347689628601 20.21960884332657 9.21347689628601 20.21960884332657 C 9.21347689628601 20.21960884332657 17.72407841682434 29.000259518623352 17.72407841682434 29.000259518623352 C 17.72407841682434 29.000259518623352 9.21347689628601 37.780249655246735 9.21347689628601 37.780249655246735 C 9.21347689628601 37.780249655246735 1.994800090789795 37.780249655246735 1.994800090789795 37.780249655246735 Z M 12.950473546981812 37.780249655246735 C 12.950473546981812 37.780249655246735 21.460532665252686 29.000259518623352 21.460532665252686 29.000259518623352 C 21.460532665252686 29.000259518623352 12.950473546981812 20.21960884332657 12.950473546981812 20.21960884332657 C 12.950473546981812 20.21960884332657 20.169150352478027 20.21960884332657 20.169150352478027 20.21960884332657 C 20.169150352478027 20.21960884332657 28.679751873016357 29.000259518623352 28.679751873016357 29.000259518623352 C 28.679751873016357 29.000259518623352 20.169150352478027 37.780249655246735 20.169150352478027 37.780249655246735 C 20.169150352478027 37.780249655246735 12.950473546981812 37.780249655246735 12.950473546981812 37.780249655246735 Z M 56.0050482749939 37.780249655246735 C 56.0050482749939 37.780249655246735 47.49498915672302 29.000259518623352 47.49498915672302 29.000259518623352 C 47.49498915672302 29.000259518623352 56.0050482749939 20.21960884332657 56.0050482749939 20.21960884332657 C 56.0050482749939 20.21960884332657 48.78644895553589 20.21960884332657 48.78644895553589 20.21960884332657 C 48.78644895553589 20.21960884332657 40.27576994895935 29.000259518623352 40.27576994895935 29.000259518623352 C 40.27576994895935 29.000259518623352 48.78644895553589 37.780249655246735 48.78644895553589 37.780249655246735 C 48.78644895553589 37.780249655246735 56.0050482749939 37.780249655246735 56.0050482749939 37.780249655246735 Z M 45.04937481880188 37.780249655246735 C 45.04937481880188 37.780249655246735 36.539315700531006 29.000259518623352 36.539315700531006 29.000259518623352 C 36.539315700531006 29.000259518623352 45.04937481880188 20.21960884332657 45.04937481880188 20.21960884332657 C 45.04937481880188 20.21960884332657 37.83077549934387 20.21960884332657 37.83077549934387 20.21960884332657 C 37.83077549934387 20.21960884332657 29.320096492767334 29.000259518623352 29.320096492767334 29.000259518623352 C 29.320096492767334 29.000259518623352 37.83077549934387 37.780249655246735 37.83077549934387 37.780249655246735 C 37.83077549934387 37.780249655246735 45.04937481880188 37.780249655246735 45.04937481880188 37.780249655246735 Z M 20.21959376335144 1.9947963953018188 C 20.21959376335144 1.9947963953018188 28.999614238739014 10.504846394062042 28.999614238739014 10.504846394062042 C 28.999614238739014 10.504846394062042 37.78025460243225 1.9947963953018188 37.78025460243225 1.9947963953018188 C 37.78025460243225 1.9947963953018188 37.78025460243225 9.213383197784424 37.78025460243225 9.213383197784424 C 37.78025460243225 9.213383197784424 28.999614238739014 17.724093735218048 28.999614238739014 17.724093735218048 C 28.999614238739014 17.724093735218048 20.21959376335144 9.213383197784424 20.21959376335144 9.213383197784424 C 20.21959376335144 9.213383197784424 20.21959376335144 1.9947963953018188 20.21959376335144 1.9947963953018188 Z M 20.21959376335144 12.950490832328796 C 20.21959376335144 12.950490832328796 28.999614238739014 21.46054083108902 28.999614238739014 21.46054083108902 C 28.999614238739014 21.46054083108902 37.78025460243225 12.950490832328796 37.78025460243225 12.950490832328796 C 37.78025460243225 12.950490832328796 37.78025460243225 20.1690776348114 37.78025460243225 20.1690776348114 C 37.78025460243225 20.1690776348114 28.999614238739014 28.679788172245026 28.999614238739014 28.679788172245026 C 28.999614238739014 28.679788172245026 20.21959376335144 20.1690776348114 20.21959376335144 20.1690776348114 C 20.21959376335144 20.1690776348114 20.21959376335144 12.950490832328796 20.21959376335144 12.950490832328796 Z M 20.21959376335144 56.005062103271484 C 20.21959376335144 56.005062103271484 28.999614238739014 47.49501210451126 28.999614238739014 47.49501210451126 C 28.999614238739014 47.49501210451126 37.78025460243225 56.005062103271484 37.78025460243225 56.005062103271484 C 37.78025460243225 56.005062103271484 37.78025460243225 48.78647530078888 37.78025460243225 48.78647530078888 C 37.78025460243225 48.78647530078888 28.999614238739014 40.275764763355255 28.999614238739014 40.275764763355255 C 28.999614238739014 40.275764763355255 20.21959376335144 48.78647530078888 20.21959376335144 48.78647530078888 C 20.21959376335144 48.78647530078888 20.21959376335144 56.005062103271484 20.21959376335144 56.005062103271484 Z M 20.21959376335144 45.04936766624451 C 20.21959376335144 45.04936766624451 28.999614238739014 36.53931766748428 28.999614238739014 36.53931766748428 C 28.999614238739014 36.53931766748428 37.78025460243225 45.04936766624451 37.78025460243225 45.04936766624451 C 37.78025460243225 45.04936766624451 37.78025460243225 37.8307808637619 37.78025460243225 37.8307808637619 C 37.78025460243225 37.8307808637619 28.999614238739014 29.320070326328278 28.999614238739014 29.320070326328278 C 28.999614238739014 29.320070326328278 20.21959376335144 37.8307808637619 20.21959376335144 37.8307808637619 C 20.21959376335144 37.8307808637619 20.21959376335144 45.04936766624451 20.21959376335144 45.04936766624451 Z"/></g></svg>