<svg version="1.1" xmlns="http://www.w3.org/2000/svg" xmlns:xlink="http://www.w3.org/1999/xlink" width="54" height="54"><defs/><g><path fill="rgb(245,197,6)" stroke="none" paint-order="stroke fill markers" fill-rule="evenodd" d=" M 1.41426682472229 14.499675214290619 C 1.41426682472229 14.499675214290619 13.632962703704834 14.035756886005402 13.632962703704834 14.035756886005402 C 13.632962703704834 14.035756886005402 13.551137447357178 1.8081952333450317 13.551137447357178 1.8081952333450317 C 13.551137447357178 1.8081952333450317 18.768194913864136 6.79724383354187 18.768194913864136 6.79724383354187 C 18.768194913864136 6.79724383354187 18.850407600402832 19.02524584531784 18.850407600402832 19.02524584531784 C 18.850407600402832 19.02524584531784 6.631401777267456 19.488723814487457 6.631401777267456 19.488723814487457 C 6.631401777267456 19.488723814487457 1.41426682472229 14.499675214290619 1.41426682472229 14.499675214290619 Z M 9.332255125045776 22.071540117263794 C 9.332255125045776 22.071540117263794 21.550873517990112 21.607621788978577 21.550873517990112 21.607621788978577 C 21.550873517990112 21.607621788978577 21.469048261642456 9.380060136318207 21.469048261642456 9.380060136318207 C 21.469048261642456 9.380060136318207 26.686105728149414 14.369108736515045 26.686105728149414 14.369108736515045 C 26.686105728149414 14.369108736515045 26.76831841468811 26.597110748291016 26.76831841468811 26.597110748291016 C 26.76831841468811 26.597110748291016 14.549312591552734 27.060588717460632 14.549312591552734 27.060588717460632 C 14.549312591552734 27.060588717460632 9.332255125045776 22.071540117263794 9.332255125045776 22.071540117263794 Z M 40.44878840446472 51.82814681529999 C 40.44878840446472 51.82814681529999 40.366575717926025 39.60102552175522 40.366575717926025 39.60102552175522 C 40.366575717926025 39.60102552175522 52.5855815410614 39.1366668343544 52.5855815410614 39.1366668343544 C 52.5855815410614 39.1366668343544 47.36852407455444 34.14761823415756 47.36852407455444 34.14761823415756 C 47.36852407455444 34.14761823415756 35.14905333518982 34.61153656244278 35.14905333518982 34.61153656244278 C 35.14905333518982 34.61153656244278 35.231653451919556 46.83909821510315 35.231653451919556 46.83909821510315 C 35.231653451919556 46.83909821510315 40.44878840446472 51.82814681529999 40.44878840446472 51.82814681529999 Z M 32.530800104141235 44.25628191232681 C 32.530800104141235 44.25628191232681 32.44866490364075 32.02916061878204 32.44866490364075 32.02916061878204 C 32.44866490364075 32.02916061878204 44.66767072677612 31.564801931381226 44.66767072677612 31.564801931381226 C 44.66767072677612 31.564801931381226 39.450613260269165 26.575753331184387 39.450613260269165 26.575753331184387 C 39.450613260269165 26.575753331184387 27.23114252090454 27.039671659469604 27.23114252090454 27.039671659469604 C 27.23114252090454 27.039671659469604 27.313742637634277 39.267233312129974 27.313742637634277 39.267233312129974 C 27.313742637634277 39.267233312129974 32.530800104141235 44.25628191232681 32.530800104141235 44.25628191232681 Z M 39.318422079086304 1.2325357794761658 C 39.318422079086304 1.2325357794761658 39.78233098983765 13.451180160045624 39.78233098983765 13.451180160045624 C 39.78233098983765 13.451180160045624 52.00993776321411 13.369383454322815 52.00993776321411 13.369383454322815 C 52.00993776321411 13.369383454322815 47.02092170715332 18.586427986621857 47.02092170715332 18.586427986621857 C 47.02092170715332 18.586427986621857 34.79285001754761 18.668665051460266 34.79285001754761 18.668665051460266 C 34.79285001754761 18.668665051460266 34.32940602302551 6.4495803117752075 34.32940602302551 6.4495803117752075 C 34.32940602302551 6.4495803117752075 39.318422079086304 1.2325357794761658 39.318422079086304 1.2325357794761658 Z M 31.74656391143799 9.150412857532501 C 31.74656391143799 9.150412857532501 32.21047282218933 21.36905723810196 32.21047282218933 21.36905723810196 C 32.21047282218933 21.36905723810196 44.438079595565796 21.28737062215805 44.438079595565796 21.28737062215805 C 44.438079595565796 21.28737062215805 39.4489860534668 26.504415154457092 39.4489860534668 26.504415154457092 C 39.4489860534668 26.504415154457092 27.220991849899292 26.5865421295166 27.220991849899292 26.5865421295166 C 27.220991849899292 26.5865421295166 26.75747036933899 14.367457389831543 26.75747036933899 14.367457389831543 C 26.75747036933899 14.367457389831543 31.74656391143799 9.150412857532501 31.74656391143799 9.150412857532501 Z M 1.98991060256958 40.266958594322205 C 1.98991060256958 40.266958594322205 14.217052459716797 40.184831619262695 14.217052459716797 40.184831619262695 C 14.217052459716797 40.184831619262695 14.681426286697388 52.403806269168854 14.681426286697388 52.403806269168854 C 14.681426286697388 52.403806269168854 19.670519828796387 47.18676173686981 19.670519828796387 47.18676173686981 C 19.670519828796387 47.18676173686981 19.206533432006836 34.96734672784805 19.206533432006836 34.96734672784805 C 19.206533432006836 34.96734672784805 6.979004144668579 35.04991406202316 6.979004144668579 35.04991406202316 C 6.979004144668579 35.04991406202316 1.98991060256958 40.266958594322205 1.98991060256958 40.266958594322205 Z M 9.561846256256104 32.34908151626587 C 9.561846256256104 32.34908151626587 21.788910627365112 32.26684445142746 21.788910627365112 32.26684445142746 C 21.788910627365112 32.26684445142746 22.253284454345703 44.48592919111252 22.253284454345703 44.48592919111252 C 22.253284454345703 44.48592919111252 27.242377996444702 39.26888465881348 27.242377996444702 39.26888465881348 C 27.242377996444702 39.26888465881348 26.77839159965515 27.049359560012817 26.77839159965515 27.049359560012817 C 26.77839159965515 27.049359560012817 14.550862312316895 27.132036983966827 14.550862312316895 27.132036983966827 C 14.550862312316895 27.132036983966827 9.561846256256104 32.34908151626587 9.561846256256104 32.34908151626587 Z"/></g></svg>