<svg version="1.1" xmlns="http://www.w3.org/2000/svg" xmlns:xlink="http://www.w3.org/1999/xlink" width="81" height="82"><defs/><g><path fill="rgb(245,197,6)" stroke="none" paint-order="stroke fill markers" fill-rule="evenodd" d=" M 1.1738624572753906 22.28658902645111 C 1.1738624572753906 22.28658902645111 19.954385995864868 21.573537528514862 19.954385995864868 21.573537528514862 C 19.954385995864868 21.573537528514862 19.82862615585327 2.7792306542396545 19.82862615585327 2.7792306542396545 C 19.82862615585327 2.7792306542396545 27.847501277923584 10.447644293308258 27.847501277923584 10.447644293308258 C 27.847501277923584 10.447644293308258 27.973803520202637 29.242501616477966 27.973803520202637 29.242501616477966 C 27.973803520202637 29.242501616477966 9.192737579345703 29.954892575740814 9.192737579345703 29.954892575740814 C 9.192737579345703 29.954892575740814 1.1738624572753906 22.28658902645111 1.1738624572753906 22.28658902645111 Z M 13.344052076339722 33.924840092659 C 13.344052076339722 33.924840092659 32.12449812889099 33.21178859472275 32.12449812889099 33.21178859472275 C 32.12449812889099 33.21178859472275 31.998815774917603 14.41759181022644 31.998815774917603 14.41759181022644 C 31.998815774917603 14.41759181022644 40.01761341094971 22.085895359516144 40.01761341094971 22.085895359516144 C 40.01761341094971 22.085895359516144 40.14399313926697 40.88075268268585 40.14399313926697 40.88075268268585 C 40.14399313926697 40.88075268268585 21.362849712371826 41.5931436419487 21.362849712371826 41.5931436419487 C 21.362849712371826 41.5931436419487 13.344052076339722 33.924840092659 13.344052076339722 33.924840092659 Z M 61.17130184173584 79.66185891628265 C 61.17130184173584 79.66185891628265 61.04492211341858 60.86832267045975 61.04492211341858 60.86832267045975 C 61.04492211341858 60.86832267045975 79.82606554031372 60.1546106338501 79.82606554031372 60.1546106338501 C 79.82606554031372 60.1546106338501 71.80719041824341 52.486196994781494 71.80719041824341 52.486196994781494 C 71.80719041824341 52.486196994781494 53.0254271030426 53.19924849271774 53.0254271030426 53.19924849271774 C 53.0254271030426 53.19924849271774 53.15242671966553 71.99355536699295 53.15242671966553 71.99355536699295 C 53.15242671966553 71.99355536699295 61.17130184173584 79.66185891628265 61.17130184173584 79.66185891628265 Z M 49.00111222267151 68.02360785007477 C 49.00111222267151 68.02360785007477 48.874809980392456 49.23007160425186 48.874809980392456 49.23007160425186 C 48.874809980392456 49.23007160425186 67.65587592124939 48.51635956764221 67.65587592124939 48.51635956764221 C 67.65587592124939 48.51635956764221 59.637078285217285 40.84794592857361 59.637078285217285 40.84794592857361 C 59.637078285217285 40.84794592857361 40.85531497001648 41.56110751628876 40.85531497001648 41.56110751628876 C 40.85531497001648 41.56110751628876 40.982314586639404 60.355194211006165 40.982314586639404 60.355194211006165 C 40.982314586639404 60.355194211006165 49.00111222267151 68.02360785007477 49.00111222267151 68.02360785007477 Z M 59.4339873790741 1.8945491909980774 C 59.4339873790741 1.8945491909980774 60.147013902664185 20.674984753131866 60.147013902664185 20.674984753131866 C 60.147013902664185 20.674984753131866 78.94125247001648 20.5492622256279 78.94125247001648 20.5492622256279 C 78.94125247001648 20.5492622256279 71.2729241847992 28.56809163093567 71.2729241847992 28.56809163093567 C 71.2729241847992 28.56809163093567 52.47798824310303 28.694474697113037 52.47798824310303 28.694474697113037 C 52.47798824310303 28.694474697113037 51.7655816078186 9.913378596305847 51.7655816078186 9.913378596305847 C 51.7655816078186 9.913378596305847 59.4339873790741 1.8945491909980774 59.4339873790741 1.8945491909980774 Z M 47.79573941230774 14.06453388929367 C 47.79573941230774 14.06453388929367 48.50876593589783 32.84518963098526 48.50876593589783 32.84518963098526 C 48.50876593589783 32.84518963098526 67.30300450325012 32.71946710348129 67.30300450325012 32.71946710348129 C 67.30300450325012 32.71946710348129 59.63459873199463 40.73829650878906 59.63459873199463 40.73829650878906 C 59.63459873199463 40.73829650878906 40.83974027633667 40.86456948518753 40.83974027633667 40.86456948518753 C 40.83974027633667 40.86456948518753 40.127333641052246 22.08336329460144 40.127333641052246 22.08336329460144 C 40.127333641052246 22.08336329460144 47.79573941230774 14.06453388929367 47.79573941230774 14.06453388929367 Z M 2.058675527572632 61.89182734489441 C 2.058675527572632 61.89182734489441 20.852216720581055 61.76555436849594 20.852216720581055 61.76555436849594 C 20.852216720581055 61.76555436849594 21.565940618515015 80.54665046930313 21.565940618515015 80.54665046930313 C 21.565940618515015 80.54665046930313 29.234346389770508 72.52782106399536 29.234346389770508 72.52782106399536 C 29.234346389770508 72.52782106399536 28.521242380142212 53.74606442451477 28.521242380142212 53.74606442451477 C 28.521242380142212 53.74606442451477 9.727003812789917 53.87299793958664 9.727003812789917 53.87299793958664 C 9.727003812789917 53.87299793958664 2.058675527572632 61.89182734489441 2.058675527572632 61.89182734489441 Z M 13.69692349433899 49.721732556819916 C 13.69692349433899 49.721732556819916 32.49046468734741 49.59534949064255 32.49046468734741 49.59534949064255 C 32.49046468734741 49.59534949064255 33.20418858528137 68.37655568122864 33.20418858528137 68.37655568122864 C 33.20418858528137 68.37655568122864 40.872594356536865 60.35772627592087 40.872594356536865 60.35772627592087 C 40.872594356536865 60.35772627592087 40.15949034690857 41.57585954666138 40.15949034690857 41.57585954666138 C 40.15949034690857 41.57585954666138 21.365251779556274 41.702903151512146 21.365251779556274 41.702903151512146 C 21.365251779556274 41.702903151512146 13.69692349433899 49.721732556819916 13.69692349433899 49.721732556819916 Z"/></g></svg>