<svg version="1.1" xmlns="http://www.w3.org/2000/svg" xmlns:xlink="http://www.w3.org/1999/xlink" width="87" height="87"><defs/><g><path fill="rgb(245,197,6)" stroke="none" paint-order="stroke fill markers" fill-rule="evenodd" d=" M 1.9920880794525146 56.99558341503143 C 1.9920880794525146 56.99558341503143 15.072351217269897 43.50033795833588 15.072351217269897 43.50033795833588 C 15.072351217269897 43.50033795833588 1.9920880794525146 30.00421178340912 1.9920880794525146 30.00421178340912 C 1.9920880794525146 30.00421178340912 13.087391376495361 30.00421178340912 13.087391376495361 30.00421178340912 C 13.087391376495361 30.00421178340912 26.16858434677124 43.50033795833588 26.16858434677124 43.50033795833588 C 26.16858434677124 43.50033795833588 13.087391376495361 56.99558341503143 13.087391376495361 56.99558341503143 C 13.087391376495361 56.99558341503143 1.9920880794525146 56.99558341503143 1.9920880794525146 56.99558341503143 Z M 18.831353902816772 56.99558341503143 C 18.831353902816772 56.99558341503143 31.911617040634155 43.50033795833588 31.911617040634155 43.50033795833588 C 31.911617040634155 43.50033795833588 18.831353902816772 30.00421178340912 18.831353902816772 30.00421178340912 C 18.831353902816772 30.00421178340912 29.92665719985962 30.00421178340912 29.92665719985962 30.00421178340912 C 29.92665719985962 30.00421178340912 43.0078501701355 43.50033795833588 43.0078501701355 43.50033795833588 C 43.0078501701355 43.50033795833588 29.92665719985962 56.99558341503143 29.92665719985962 56.99558341503143 C 29.92665719985962 56.99558341503143 18.831353902816772 56.99558341503143 18.831353902816772 56.99558341503143 Z M 85.0078399181366 56.99558341503143 C 85.0078399181366 56.99558341503143 71.92757678031921 43.50033795833588 71.92757678031921 43.50033795833588 C 71.92757678031921 43.50033795833588 85.0078399181366 30.00421178340912 85.0078399181366 30.00421178340912 C 85.0078399181366 30.00421178340912 73.91253662109375 30.00421178340912 73.91253662109375 30.00421178340912 C 73.91253662109375 30.00421178340912 60.83134365081787 43.50033795833588 60.83134365081787 43.50033795833588 C 60.83134365081787 43.50033795833588 73.91253662109375 56.99558341503143 73.91253662109375 56.99558341503143 C 73.91253662109375 56.99558341503143 85.0078399181366 56.99558341503143 85.0078399181366 56.99558341503143 Z M 68.16857409477234 56.99558341503143 C 68.16857409477234 56.99558341503143 55.088310956954956 43.50033795833588 55.088310956954956 43.50033795833588 C 55.088310956954956 43.50033795833588 68.16857409477234 30.00421178340912 68.16857409477234 30.00421178340912 C 68.16857409477234 30.00421178340912 57.07327079772949 30.00421178340912 57.07327079772949 30.00421178340912 C 57.07327079772949 30.00421178340912 43.99207782745361 43.50033795833588 43.99207782745361 43.50033795833588 C 43.99207782745361 43.50033795833588 57.07327079772949 56.99558341503143 57.07327079772949 56.99558341503143 C 57.07327079772949 56.99558341503143 68.16857409477234 56.99558341503143 68.16857409477234 56.99558341503143 Z M 30.004298210144043 1.9919776320457458 C 30.004298210144043 1.9919776320457458 43.49949908256531 15.07229471206665 43.49949908256531 15.07229471206665 C 43.49949908256531 15.07229471206665 56.99562978744507 1.9919776320457458 56.99562978744507 1.9919776320457458 C 56.99562978744507 1.9919776320457458 56.99562978744507 13.08737599849701 56.99562978744507 13.08737599849701 C 56.99562978744507 13.08737599849701 43.49949908256531 26.168463706970215 43.49949908256531 26.168463706970215 C 43.49949908256531 26.168463706970215 30.004298210144043 13.08737599849701 30.004298210144043 13.08737599849701 C 30.004298210144043 13.08737599849701 30.004298210144043 1.9919776320457458 30.004298210144043 1.9919776320457458 Z M 30.004298210144043 18.831310212612152 C 30.004298210144043 18.831310212612152 43.49949908256531 31.911627292633057 43.49949908256531 31.911627292633057 C 43.49949908256531 31.911627292633057 56.99562978744507 18.831310212612152 56.99562978744507 18.831310212612152 C 56.99562978744507 18.831310212612152 56.99562978744507 29.926598489284515 56.99562978744507 29.926598489284515 C 56.99562978744507 29.926598489284515 43.49949908256531 43.00779628753662 43.49949908256531 43.00779628753662 C 43.49949908256531 43.00779628753662 30.004298210144043 29.926598489284515 30.004298210144043 29.926598489284515 C 30.004298210144043 29.926598489284515 30.004298210144043 18.831310212612152 30.004298210144043 18.831310212612152 Z M 30.004298210144043 85.0078175663948 C 30.004298210144043 85.0078175663948 43.49949908256531 71.9275004863739 43.49949908256531 71.9275004863739 C 43.49949908256531 71.9275004863739 56.99562978744507 85.0078175663948 56.99562978744507 85.0078175663948 C 56.99562978744507 85.0078175663948 56.99562978744507 73.91252928972244 56.99562978744507 73.91252928972244 C 56.99562978744507 73.91252928972244 43.49949908256531 60.83122140169144 43.49949908256531 60.83122140169144 C 43.49949908256531 60.83122140169144 30.004298210144043 73.91252928972244 30.004298210144043 73.91252928972244 C 30.004298210144043 73.91252928972244 30.004298210144043 85.0078175663948 30.004298210144043 85.0078175663948 Z M 30.004298210144043 68.1684849858284 C 30.004298210144043 68.1684849858284 43.49949908256531 55.088167905807495 43.49949908256531 55.088167905807495 C 43.49949908256531 55.088167905807495 56.99562978744507 68.1684849858284 56.99562978744507 68.1684849858284 C 56.99562978744507 68.1684849858284 56.99562978744507 57.073196709156036 56.99562978744507 57.073196709156036 C 56.99562978744507 57.073196709156036 43.49949908256531 43.99199891090393 43.49949908256531 43.99199891090393 C 43.49949908256531 43.99199891090393 30.004298210144043 57.073196709156036 30.004298210144043 57.073196709156036 C 30.004298210144043 57.073196709156036 30.004298210144043 68.1684849858284 30.004298210144043 68.1684849858284 Z"/></g></svg>