<svg version="1.1" xmlns="http://www.w3.org/2000/svg" xmlns:xlink="http://www.w3.org/1999/xlink" width="171" height="159"><defs/><g><path fill="rgb(188,125,0)" stroke="none" paint-order="stroke fill markers" fill-rule="evenodd" d=" M 169.9987542629242 17.312591910362244 C 169.9987542629242 17.312591910362244 154.71750020980835 32.62552970647812 154.71750020980835 32.62552970647812 C 154.71750020980835 32.62552970647812 154.71750020980835 31.237958133220673 154.71750020980835 35.178291499614716 C 154.71750020980835 37.97666358947754 154.2680037021637 40.650193870067596 153.61696600914001 43.24655121564865 C 153.26107263565063 64.31267076730728 146.56457424163818 92.24784207344055 119.06129240989685 114.29728353023529 C 64.96030807495117 157.6683629155159 6.998969316482544 119.40170621871948 6.998969316482544 119.40170621871948 C 52.84257650375366 119.40170621871948 52.84257650375366 104.0881078839302 52.84257650375366 104.0881078839302 C 42.655099630355835 104.0881078839302 22.28022336959839 83.67085748910904 22.28022336959839 83.67085748910904 C 27.37384557723999 88.77472972869873 37.56155490875244 83.67085748910904 37.56155490875244 83.67085748910904 C 12.092359066009521 68.35692888498306 12.092359066009521 53.04388099908829 12.092359066009521 53.04388099908829 C 17.186368703842163 58.14797341823578 27.37384557723999 53.04388099908829 27.37384557723999 53.04388099908829 C 1.9051146507263184 32.62552970647812 17.186368703842163 7.103196084499359 17.186368703842163 7.103196084499359 C 22.28022336959839 32.62552970647812 88.49893927574158 42.8345952630043 88.49893927574158 42.8345952630043 C 88.49893927574158 42.8345952630043 89.34128999710083 42.41240096092224 89.34128999710083 42.41240096092224 C 88.82166862487793 40.077837109565735 88.49893927574158 35.117742121219635 88.49893927574158 32.62552970647812 C 88.49893927574158 14.301856637001038 103.32209587097168 1.9989935755729675 121.60802602767944 1.9989935755729675 C 131.67268753051758 1.9989935755729675 140.57862281799316 6.595241844654083 146.65042877197266 13.697904109954834 C 146.65042877197266 13.697904109954834 149.62387800216675 12.208169221878052 149.62387800216675 12.208169221878052 C 149.62387800216675 12.208169221878052 164.9051320552826 1.9989935755729675 164.9051320552826 1.9989935755729675 C 164.9051320552826 1.9989935755729675 154.71750020980835 22.416904509067535 154.71750020980835 22.416904509067535 C 154.71750020980835 22.416904509067535 169.9987542629242 17.312591910362244 169.9987542629242 17.312591910362244 Z"/></g></svg>